<svg width="26" height="31" viewBox="0 0 26 31" fill="none" xmlns="http://www.w3.org/2000/svg">
<g id="Logo">
<path id="Right" fill-rule="evenodd" clip-rule="evenodd" d="M23.1701 7.73877C23.1423 7.91944 23.1099 8.10407 23.0738 8.29379C21.8303 14.7046 17.5756 16.9193 12.1419 16.9193H9.37515C8.71057 16.9193 8.15047 17.4037 8.04713 18.0619L6.2294 29.6387C6.1621 30.071 6.49383 30.4603 6.92805 30.4603H11.8352C12.4161 30.4603 12.9098 30.0365 13.0013 29.4611L13.0495 29.2109L13.9734 23.324L14.0328 23.0011C14.1232 22.4237 14.618 21.9996 15.1989 21.9996H15.9327C20.687 21.9996 24.4089 20.0617 25.4967 14.4533C25.9509 12.1105 25.7158 10.1542 24.5134 8.7784C24.1495 8.36362 23.6981 8.01925 23.1701 7.73877" fill="#298FC2"/>
<path id="Middle" fill-rule="evenodd" clip-rule="evenodd" d="M21.8692 7.21816C21.6791 7.16246 21.4831 7.11213 21.282 7.06661C21.0798 7.02222 20.8729 6.98292 20.6597 6.94843C19.9137 6.82742 19.0963 6.77002 18.2208 6.77002H10.8296C10.6474 6.77002 10.4745 6.8113 10.3199 6.88594C9.97893 7.0505 9.72577 7.37452 9.66438 7.7712L8.09193 17.7706L8.04688 18.0621C8.15022 17.4039 8.71032 16.9195 9.3749 16.9195H12.1416C17.5753 16.9195 21.83 14.7037 23.0736 8.29399C23.1107 8.10427 23.142 7.91964 23.1699 7.73897C22.8553 7.5713 22.5146 7.42796 22.1477 7.30581C22.057 7.27556 21.9635 7.24644 21.8692 7.21816" fill="#22284F"/>
<path id="Left" fill-rule="evenodd" clip-rule="evenodd" d="M9.66524 7.77139C9.72663 7.37471 9.97979 7.05069 10.3208 6.88726C10.4765 6.81234 10.6483 6.77106 10.8305 6.77106H18.2216C19.0971 6.77106 19.9146 6.82874 20.6606 6.94975C20.8737 6.98396 21.0807 7.02354 21.2829 7.06793C21.484 7.11317 21.6799 7.16378 21.87 7.2192C21.9644 7.24747 22.0579 7.27688 22.1494 7.306C22.5163 7.42814 22.8573 7.57263 23.1719 7.73916C23.5419 5.37008 23.1688 3.75705 21.8931 2.29641C20.4865 0.688189 17.9482 0 14.7 0H5.26976C4.60631 0 4.0403 0.484334 3.9378 1.14368L0.010052 26.1416C-0.0673877 26.6361 0.312489 27.0822 0.80923 27.0822H6.63101L9.66524 7.77139" fill="#28356A"/>
</g>
</svg>
