<svg width="50" height="34" viewBox="0 0 50 34" fill="none" xmlns="http://www.w3.org/2000/svg">
<g id="Payment Method/Stripe">
<rect width="50" height="33.3333" rx="5" fill="#6461FC"/>
<g id="Vector">
<path d="M31.925 12.2558C31.5724 12.2538 31.223 12.3213 30.8966 12.4546C30.5703 12.5879 30.2735 12.7843 30.0232 13.0326L29.8982 12.4165H27.7642V23.9522L30.1928 23.4254V20.6308C30.6758 21.0353 31.286 21.2566 31.916 21.2558C33.6482 21.2558 35.2375 19.8361 35.2375 16.6933C35.2375 13.8183 33.6303 12.2558 31.925 12.2558ZM31.3446 19.0683C31.1316 19.0806 30.9185 19.0453 30.7208 18.965C30.5232 18.8847 30.3458 18.7614 30.2017 18.604V14.9344C30.3464 14.7712 30.5258 14.6425 30.7266 14.5576C30.9274 14.4726 31.1446 14.4336 31.3625 14.4433C32.2553 14.4433 32.8625 15.4522 32.8625 16.7469C32.8625 18.0415 32.2464 19.0683 31.3446 19.0683Z" fill="white"/>
<path d="M39.7196 12.2558C37.3803 12.2558 35.9607 14.2736 35.9607 16.8183C35.9607 19.8272 37.6392 21.354 40.0321 21.354C40.966 21.3692 41.8882 21.1448 42.7107 20.7022V18.6933C41.9637 19.0702 41.1365 19.2601 40.3 19.2469C39.3357 19.2469 38.5143 18.8986 38.3893 17.729H43.1928C43.1928 17.5951 43.1928 17.0683 43.1928 16.8361C43.2732 14.2736 42.0589 12.2558 39.7196 12.2558ZM38.4071 15.8897C38.4071 14.7647 39.0946 14.2915 39.7018 14.2915C40.3089 14.2915 40.9518 14.7647 40.9518 15.8897H38.4071Z" fill="white"/>
<path d="M21.2107 13.0861L21.0589 12.354H18.9875V21.0236H21.3803V15.1486C21.5964 14.8863 21.8875 14.6961 22.2145 14.6036C22.5416 14.511 22.8891 14.5205 23.2107 14.6308V12.354C22.8454 12.2109 22.4404 12.2064 22.072 12.3412C21.7036 12.4761 21.3972 12.741 21.2107 13.0861Z" fill="white"/>
<path d="M9.12137 14.9611C9.12137 14.5683 9.4428 14.4165 9.95173 14.4165C10.7952 14.4347 11.6219 14.6551 12.3624 15.0594V12.7111C11.5968 12.4016 10.7775 12.2468 9.95173 12.2558C7.97852 12.2558 6.66602 13.3094 6.66602 15.0772C6.66602 17.8451 10.3624 17.3986 10.3624 18.5861C10.3624 19.0504 9.96959 19.2022 9.46959 19.2022C8.52625 19.1471 7.60892 18.8719 6.79102 18.3986V20.8004C7.63399 21.1764 8.54656 21.3711 9.46959 21.3719C11.4874 21.3719 12.8803 20.3451 12.8803 18.5504C12.8357 15.5504 9.12137 16.0861 9.12137 14.9611Z" fill="white"/>
<path d="M16.1035 10.3004L13.7374 10.8183V18.7915C13.7253 19.1275 13.7817 19.4625 13.9033 19.7759C14.025 20.0894 14.2093 20.3748 14.4449 20.6146C14.6806 20.8544 14.9627 21.0437 15.2739 21.1708C15.5852 21.298 15.9191 21.3603 16.2553 21.354C16.8419 21.3802 17.4263 21.267 17.9607 21.0236V19.0147C17.6482 19.1486 16.1214 19.604 16.1214 18.1219V14.5504H17.9607V12.4611H16.1214L16.1035 10.3004Z" fill="white"/>
<path d="M24.1124 11.604L26.5499 11.0951V9.1665L24.1124 9.67543V11.604Z" fill="white"/>
<path d="M26.5499 12.4165H24.1124V21.0236H26.5499V12.4165Z" fill="white"/>
</g>
</g>
</svg>
